<?xml version="1.0" encoding="UTF-8"?>
<svg version="1.1" xmlns="http://www.w3.org/2000/svg" width="512" height="512">
<path d="M0 0 C0.80163574 0.24556641 1.60327148 0.49113281 2.42919922 0.74414062 C7.08205269 2.22798496 11.53162844 4.01991689 16 6 C16.66966797 6.28568848 17.33933594 6.57137695 18.02929688 6.86572266 C33.31112552 13.40750453 47.42165033 22.10021692 60 33 C61.22396484 34.05960938 61.22396484 34.05960938 62.47265625 35.140625 C65.0178422 37.39077393 67.51544497 39.68316219 70 42 C70.79019531 42.72445312 71.58039063 43.44890625 72.39453125 44.1953125 C89.70132984 60.69129177 102.39774091 81.81034516 111 104 C111.67289062 105.72476563 111.67289062 105.72476563 112.359375 107.484375 C113.72758825 111.28496736 114.89392425 115.11775319 116 119 C116.22993652 119.75458496 116.45987305 120.50916992 116.69677734 121.28662109 C127.15586858 156.72856531 123.49223092 199.65680388 108 233 C107.67209473 233.70576172 107.34418945 234.41152344 107.00634766 235.13867188 C103.49160231 242.58959486 99.86543432 249.76287019 94.93359375 256.3984375 C92.2206141 263.9584561 95.83353013 274.38965202 97.1875 282.0625 C97.4030957 283.30531738 97.61869141 284.54813477 97.84082031 285.82861328 C99.0571808 292.79716499 100.32113272 299.75508069 101.62890625 306.70703125 C101.90156511 308.16721457 102.17410806 309.62741954 102.4465332 311.08764648 C102.96508998 313.86651066 103.49506475 316.64284564 104.03198242 319.41821289 C105.26452891 326.0001342 106.29461474 332.55519167 106.859375 339.2265625 C106.96217773 340.43135254 107.06498047 341.63614258 107.17089844 342.87744141 C106.98064651 346.35361585 106.47098257 347.59867314 104 350 C99.08151597 351.61146913 95.49428082 350.51345519 90.875 348.625 C89.84499878 348.221604 89.84499878 348.221604 88.79418945 347.81005859 C81.45223777 344.88310541 74.27444408 341.57779369 67.0859375 338.296875 C59.89838376 335.02855671 52.61516398 331.99747023 45.32128906 328.97607422 C42.95003568 327.9789906 40.59565712 326.94845167 38.2421875 325.91015625 C37.47608154 325.57838379 36.70997559 325.24661133 35.9206543 324.90478516 C34.47689745 324.27942552 33.03782527 323.64308639 31.60473633 322.99365234 C26.06361477 320.62487615 22.73071348 320.97120178 17.2109375 323.05078125 C15.80714844 323.67533203 15.80714844 323.67533203 14.375 324.3125 C8.3078194 326.88846841 2.34334234 329.19147261 -4 331 C-4.71349609 331.21720703 -5.42699219 331.43441406 -6.16210938 331.65820312 C-41.71990942 342.11295351 -84.53278485 338.50026214 -118 323 C-118.6791748 322.68804687 -119.35834961 322.37609375 -120.05810547 322.0546875 C-134.48420417 315.3350278 -148.02970824 307.55662233 -160 297 C-161.26070312 295.90365234 -161.26070312 295.90365234 -162.546875 294.78515625 C-165.06651469 292.55895286 -167.53985699 290.29169373 -170 288 C-170.78890625 287.27683594 -171.5778125 286.55367188 -172.390625 285.80859375 C-189.21834657 269.76797528 -201.71516899 249.32796545 -210.27539062 227.81738281 C-210.94913389 226.1275766 -211.6530709 224.44989494 -212.359375 222.7734375 C-213.75689501 219.22787748 -214.93347239 215.65533491 -216 212 C-216.22993652 211.22865723 -216.45987305 210.45731445 -216.69677734 209.66259766 C-226.87530344 173.6828517 -223.67524105 130.84501889 -208 97 C-207.68804687 96.3208252 -207.37609375 95.64165039 -207.0546875 94.94189453 C-200.3350278 80.51579583 -192.55662233 66.97029176 -182 55 C-181.26910156 54.15953125 -180.53820312 53.3190625 -179.78515625 52.453125 C-177.55895286 49.93348531 -175.29169373 47.46014301 -173 45 C-172.27683594 44.21109375 -171.55367187 43.4221875 -170.80859375 42.609375 C-151.48209887 22.33454111 -125.04265391 7.07478534 -98.09326172 -0.41748047 C-96.6341865 -0.82351656 -95.1803172 -1.24853305 -93.73095703 -1.68798828 C-64.37913771 -10.35465643 -29.08635469 -8.95285823 0 0 Z " fill="#FCE100" transform="translate(306,91)"/>
<path d="M0 0 C0.33 0 0.66 0 1 0 C0.9278125 0.59425781 0.855625 1.18851563 0.78125 1.80078125 C0.6884375 2.62964844 0.595625 3.45851562 0.5 4.3125 C0.4071875 5.11300781 0.314375 5.91351563 0.21875 6.73828125 C-2.46903015 46.81500312 20.0867633 93.51213731 45.91015625 123.40234375 C48.31346394 126.10920582 50.79884383 128.72277139 53.33544922 131.3046875 C55.17632051 133.179579 56.9953228 135.07464178 58.81640625 136.96875 C66.54144186 144.92443967 74.47142092 152.18895977 83.38134766 158.79150391 C84.94205461 159.9567376 86.47750924 161.1555617 88.01171875 162.35546875 C108.87387867 178.5382657 134.08501855 191.41322961 159 200 C159.87914062 200.30437988 160.75828125 200.60875977 161.6640625 200.92236328 C172.95871824 204.73350513 182.09974828 206.91360832 194 205 C196.12373697 204.79869792 198.24874527 204.61019074 200.375 204.4375 C201.91680111 204.293095 203.45852597 204.14785567 205 204 C194.38548348 209.74131751 180.78077103 208.48212739 169.0625 208.5 C168.08734436 208.5023465 167.11218872 208.50469299 166.10748291 208.5071106 C142.83524176 208.4839781 121.27284332 204.85246745 100 195 C99.3208252 194.68804687 98.64165039 194.37609375 97.94189453 194.0546875 C83.51579583 187.3350278 69.97029176 179.55662233 58 169 C56.73929688 167.90365234 56.73929688 167.90365234 55.453125 166.78515625 C52.93348531 164.55895286 50.46014301 162.29169373 48 160 C47.21109375 159.27683594 46.4221875 158.55367187 45.609375 157.80859375 C28.78165343 141.76797528 16.28483101 121.32796545 7.72460938 99.81738281 C7.05086611 98.1275766 6.3469291 96.44989494 5.640625 94.7734375 C4.24310499 91.22787748 3.06652761 87.65533491 2 84 C1.77006348 83.22865723 1.54012695 82.45731445 1.30322266 81.66259766 C-2.94518095 66.64505179 -3.48243581 51.8743479 -3.5 36.375 C-3.50660141 34.95704132 -3.50660141 34.95704132 -3.51333618 33.51043701 C-3.53574033 21.9706734 -2.83202236 11.21766654 0 0 Z " fill="#ECBA0C" transform="translate(88,219)"/>
<path d="M0 0 C28.37767858 1.52023278 55.1450963 19.52926989 73.75390625 39.97265625 C88.08431227 56.57842445 100.79921806 79.58540385 102 102 C100.9378125 101.97679687 99.875625 101.95359375 98.78125 101.9296875 C88.24509835 101.75383769 88.24509835 101.75383769 78 104 C77.6596875 103.09121094 77.319375 102.18242187 76.96875 101.24609375 C64.29320322 68.08472479 42.43951307 43.09331066 10.0625 28.1875 C8.37855839 27.45015278 6.69135127 26.72018828 5 26 C3.89398438 25.52046875 3.89398438 25.52046875 2.765625 25.03125 C1.18040171 24.34643354 -0.40916806 23.6716846 -2 23 C-1.67 21.989375 -1.34 20.97875 -1 19.9375 C0.66588042 13.4499516 0.15576843 6.64611974 0 0 Z " fill="#FFFFFF" transform="translate(296,119)"/>
</svg>
