<?xml version="1.0" encoding="UTF-8"?>
<svg version="1.1" xmlns="http://www.w3.org/2000/svg" width="48" height="48">
<path d="M0 0 C15.84 0 31.68 0 48 0 C48 15.84 48 31.68 48 48 C32.16 48 16.32 48 0 48 C0 32.16 0 16.32 0 0 Z " fill="#0A0B0B" transform="translate(0,0)"/>
<path d="M0 0 C0.99 0.33 1.98 0.66 3 1 C3.37125 1.969375 3.7425 2.93875 4.125 3.9375 C5.64538671 7.11940742 5.64538671 7.11940742 8.19140625 7.83984375 C10.45873496 8.32595335 12.6985908 8.72016408 15 9 C14.2578125 12.796875 14.2578125 12.796875 11.9375 14.625 C8.8921535 18.35800538 9.68128134 22.36087278 10 27 C7.53559788 26.42885101 5.46508533 25.7674284 3.125 24.75 C-0.94330228 23.77360745 -2.48401871 24.92237469 -6 27 C-6.66 27 -7.32 27 -8 27 C-7.94199219 26.33613281 -7.88398438 25.67226563 -7.82421875 24.98828125 C-7.41836592 19.01551267 -7.41836592 19.01551267 -10.5 14.0625 C-11.325 13.381875 -12.15 12.70125 -13 12 C-13 11.01 -13 10.02 -13 9 C-12.39671875 8.93683594 -11.7934375 8.87367187 -11.171875 8.80859375 C-6.30280837 8.15707247 -6.30280837 8.15707247 -2.51171875 5.30859375 C-1.28504265 3.17971755 -1.28504265 3.17971755 0 0 Z " fill="#39DFCC" transform="translate(23,10)"/>
</svg>
