<?xml version="1.0" encoding="UTF-8"?>
<svg version="1.1" xmlns="http://www.w3.org/2000/svg" width="1822" height="1822">
<path d="M0 0 C601.26 0 1202.52 0 1822 0 C1822 601.26 1822 1202.52 1822 1822 C1220.74 1822 619.48 1822 0 1822 C0 1220.74 0 619.48 0 0 Z " fill="#000000" transform="translate(0,0)"/>
<path d="M0 0 C1.52740208 -0.00300528 3.05480264 -0.00687992 4.58220059 -0.01153234 C8.74872227 -0.02172927 12.91515821 -0.01967962 17.08168686 -0.01547697 C21.6265059 -0.01309702 26.17130466 -0.02229754 30.71611583 -0.02996117 C38.67182572 -0.04177417 46.62751272 -0.04617528 54.58323097 -0.04563999 C66.41458752 -0.04484485 78.24591528 -0.05541629 90.07726412 -0.06805556 C113.67350763 -0.09276306 137.26974408 -0.1015749 160.86599875 -0.10659205 C162.0872706 -0.10685322 163.30854244 -0.1071144 164.56682253 -0.10738349 C165.79062076 -0.10764376 167.014419 -0.10790404 168.27530203 -0.1081722 C181.85268264 -0.11125767 195.4300613 -0.11776358 209.00744057 -0.12438488 C250.03832021 -0.14403009 291.06919775 -0.16043573 332.1000824 -0.16326141 C333.41181522 -0.16335547 334.72354804 -0.16344954 336.07503034 -0.16354645 C341.39062664 -0.16392492 346.70622293 -0.16428891 352.02181923 -0.16464943 C355.35504181 -0.16487581 358.68826439 -0.16510495 362.02148697 -0.16533687 C363.35644482 -0.1654289 364.69140267 -0.16551929 366.02636052 -0.16560807 C408.21168629 -0.16842064 450.39696414 -0.19014816 492.58227348 -0.22699833 C539.25629154 -0.26776875 585.93027785 -0.29142031 632.60431468 -0.29172093 C637.58630554 -0.29181774 642.56829639 -0.29198446 647.55028725 -0.29220104 C648.77692448 -0.29224516 650.00356171 -0.29228927 651.26736977 -0.29233472 C670.96560996 -0.29345231 690.66380329 -0.31082807 710.36202842 -0.33402036 C730.17932324 -0.35691907 749.99655508 -0.36105196 769.81385829 -0.34647106 C781.56983621 -0.33835 793.32561507 -0.34390225 805.08156865 -0.36965191 C812.95549562 -0.38549891 820.82928254 -0.38283078 828.70320639 -0.36574518 C833.17565662 -0.35654528 837.64772584 -0.35475284 842.1201451 -0.37571125 C863.38601413 -0.46908103 883.34928951 0.95261569 904.21557426 5.26006222 C905.09107485 5.43529897 905.96657544 5.61053573 906.86860634 5.79108269 C924.35785255 9.30116491 942.04396145 14.94396502 957.93481255 23.09599972 C960.76481399 24.54038495 963.6143579 25.94386034 966.46166801 27.35381222 C980.44495654 34.35683466 993.71174141 41.83108396 1006.21557426 51.26006222 C1006.88572563 51.75812374 1007.555877 52.25618526 1008.24633598 52.76933956 C1018.45151209 60.44880322 1027.53884064 69.28260088 1036.59057426 78.26006222 C1037.13706627 78.79851772 1037.68355827 79.33697323 1038.24661064 79.89174557 C1064.63736434 105.98747513 1087.87290867 141.14338273 1097.64916801 177.17412472 C1098.21074763 179.24228688 1098.88173061 181.23811473 1099.59057426 183.26006222 C1108.32110907 209.2678659 1111.52047605 234.81397205 1111.48972893 262.14021969 C1111.4941874 264.64877763 1111.49950344 267.15733417 1111.50559765 269.66588867 C1111.51677547 275.09813985 1111.52181318 280.5303419 1111.52127647 285.96260357 C1111.5204792 294.04161427 1111.53107462 302.12058306 1111.54369204 310.1995825 C1111.56836207 326.31487078 1111.5772074 342.43014868 1111.58222853 358.54545326 C1111.58262029 359.79568037 1111.58262029 359.79568037 1111.58301997 361.07116461 C1111.58328025 361.90643223 1111.58354052 362.74169986 1111.58380868 363.60227862 C1111.58689792 372.88184288 1111.5934052 382.16140431 1111.60002136 391.44096661 C1111.61966337 419.50136646 1111.63607058 447.56176328 1111.6388979 475.62217045 C1111.63903899 476.96696837 1111.63903899 476.96696837 1111.63918293 478.33893393 C1111.63956138 481.97176179 1111.63992538 485.60458964 1111.64028591 489.2374175 C1111.64055762 491.97136548 1111.6408343 494.70531346 1111.64111137 497.43926144 C1111.6411994 498.34266653 1111.64128742 499.24607162 1111.64137811 500.17685262 C1111.64428093 528.53648835 1111.66635713 556.8960558 1111.70263481 585.25566769 C1111.74345046 617.16312815 1111.76705713 649.0705421 1111.76735741 680.97803009 C1111.76745422 684.38726577 1111.76762093 687.79650144 1111.76783752 691.20573711 C1111.76788164 692.04509221 1111.76792575 692.88444731 1111.7679712 693.74923741 C1111.76908646 707.19900868 1111.78642796 720.648711 1111.80965684 734.09846014 C1111.83261295 747.64260159 1111.83665192 761.18665089 1111.82210755 774.7308047 C1111.81472308 782.05402778 1111.81511851 789.37703344 1111.83851814 796.70022869 C1112.00908626 852.58016789 1112.00908626 852.58016789 1106.21557426 877.26006222 C1105.73321567 879.58241751 1105.26662258 881.90737584 1104.80360693 884.2336446 C1101.43858616 900.20814644 1095.82801441 916.46009585 1088.37963676 930.9793005 C1086.93525153 933.80930194 1085.53177614 936.65884585 1084.12182426 939.50615597 C1077.11880182 953.48944449 1069.64455253 966.75622937 1060.21557426 979.26006222 C1059.71751274 979.93021358 1059.21945122 980.60036495 1058.70629692 981.29082394 C1051.02683326 991.49600005 1042.19303561 1000.58332859 1033.21557426 1009.63506222 C1032.40789101 1010.45480022 1032.40789101 1010.45480022 1031.58389091 1011.29109859 C1010.36183224 1032.75308233 985.23002905 1048.10996255 958.21557426 1061.26006222 C957.14871391 1061.7807629 956.08185356 1062.30146358 954.98266411 1062.83794308 C947.43140692 1066.43055911 939.81097042 1069.30470323 931.84057426 1071.82256222 C930.62885551 1072.20750851 929.41713676 1072.5924548 928.16869926 1072.98906612 C918.12504304 1076.1092848 907.99531701 1078.80804211 897.63373089 1080.6482935 C895.80558324 1080.97548843 893.97808816 1081.30759194 892.15700471 1081.67205787 C880.12942583 1084.06097559 869.99398397 1084.36141418 857.97974694 1081.98821378 C853.48704644 1081.11210026 848.97113503 1080.37233504 844.45611382 1079.62139034 C843.49631931 1079.46040454 842.53652481 1079.29941874 841.54764563 1079.13355458 C820.68611215 1075.70018001 799.6077772 1073.8551117 778.52807426 1072.38506222 C776.77062897 1072.26035061 776.77062897 1072.26035061 774.97767973 1072.13311958 C713.24508769 1067.91147086 663.28744161 1076.24228479 616.16108513 1116.902915 C591.73700049 1138.25214126 569.19656065 1161.50387438 547.27807426 1185.38506222 C546.73006238 1185.98159465 546.18205049 1186.57812709 545.61743218 1187.19273627 C525.77259147 1208.80595438 506.16600364 1230.65632902 487.42975221 1253.24178161 C486.10955866 1254.83225562 484.7865327 1256.42032873 483.46264952 1258.00773227 C479.42239479 1262.85618494 475.41152551 1267.72397859 471.45894146 1272.64432621 C462.46368628 1283.65341121 454.56120879 1291.22301082 440.21557426 1294.26006222 C425.98009293 1295.47954067 412.27038185 1295.11721718 400.15307426 1286.69756222 C387.74670835 1276.10112032 376.28294171 1264.47650676 364.75732231 1252.94707394 C362.93296506 1251.12571449 361.1084049 1249.30455827 359.28365898 1247.48358822 C354.87496571 1243.08312779 350.46898301 1238.6799635 346.06412383 1234.27566545 C342.48629296 1230.69831224 338.90766844 1227.12175486 335.32849884 1223.54574108 C325.16558403 1213.39160433 315.00473859 1203.23540344 304.8465884 1193.07650016 C304.30134445 1192.53121627 303.75610051 1191.98593237 303.19433403 1191.42412472 C302.37546571 1190.60519508 302.37546571 1190.60519508 301.5400546 1189.7697214 C292.65671701 1180.88597575 283.76837737 1172.00725317 274.87781217 1163.13074122 C265.73409097 1154.00135928 256.59407824 1144.86827917 247.45795661 1135.73129189 C242.33415288 1130.60715586 237.20881266 1125.48457853 232.07947159 1120.36598492 C227.26905435 1115.5655838 222.463783 1110.76009171 217.66202736 1105.95102406 C215.89479311 1104.18273832 214.12583089 1102.4161777 212.35506821 1100.65142536 C209.94922794 1098.25322715 207.54954904 1095.84903372 205.15141106 1093.44313717 C204.44045318 1092.73732285 203.7294953 1092.03150854 202.99699324 1091.30430591 C202.36058215 1090.66329602 201.72417105 1090.02228613 201.06847477 1089.36185169 C200.51353563 1088.80712992 199.95859648 1088.25240814 199.386841 1087.68087661 C198.21557426 1086.26006222 198.21557426 1086.26006222 198.21557426 1084.26006222 C197.13203321 1084.2628276 196.04849215 1084.26559298 194.93211651 1084.26844215 C168.48717099 1084.33523529 142.04223649 1084.38443142 115.59722424 1084.41549873 C102.80827448 1084.4309245 90.01938067 1084.4519314 77.23046684 1084.48638058 C66.07513917 1084.51641491 54.91985205 1084.53566834 43.76448506 1084.5423277 C37.86554991 1084.54621631 31.9667307 1084.55526428 26.06783295 1084.57725239 C20.49876092 1084.59783996 14.92985094 1084.60385173 9.36074448 1084.59938526 C7.33289645 1084.60020062 5.30504215 1084.60603203 3.2772274 1084.61767864 C-15.04535161 1084.71761892 -32.66320082 1082.58552102 -50.47192574 1078.26006222 C-52.06424019 1077.88881222 -52.06424019 1077.88881222 -53.68872261 1077.51006222 C-62.93315562 1075.32283962 -71.94407601 1072.74554493 -80.78442574 1069.26006222 C-81.7531562 1068.88228634 -81.7531562 1068.88228634 -82.74145699 1068.49687862 C-92.70934503 1064.57214558 -102.358584 1060.1980561 -111.86108589 1055.25420284 C-113.71630569 1054.29527227 -115.5824054 1053.36166065 -117.45239449 1052.43193722 C-140.47676818 1040.80543182 -159.95918742 1024.31096193 -178.15942574 1006.26006222 C-178.70591774 1005.72160671 -179.25240974 1005.18315121 -179.81546211 1004.62837887 C-201.27744585 983.4063202 -216.63432607 958.274517 -229.78442574 931.26006222 C-230.30512642 930.19320187 -230.8258271 929.12634151 -231.36230659 928.02715206 C-234.95492263 920.47589488 -237.82906675 912.85545837 -240.34692574 904.88506222 C-240.73187202 903.67334347 -241.11681831 902.46162472 -241.51342964 901.21318722 C-244.98677706 890.03284665 -247.74727075 878.78619059 -249.78442574 867.26006222 C-249.90369689 866.61634157 -250.02296804 865.97262092 -250.14585347 865.30939358 C-252.79693066 850.77106317 -253.20996576 836.58740065 -253.16537666 821.83832455 C-253.16884001 819.31989971 -253.17360909 816.80147639 -253.1795584 814.2830562 C-253.18941746 808.84185528 -253.19011765 803.40077686 -253.18241692 797.9595747 C-253.17099651 789.86783513 -253.17690825 781.77617012 -253.18604184 773.68443094 C-253.20178582 759.22629536 -253.20049115 744.76819971 -253.1918051 730.31006038 C-253.18424103 717.65643671 -253.18229641 705.00282763 -253.18587303 692.34920216 C-253.18610219 691.50795303 -253.18633134 690.66670391 -253.18656744 689.79996239 C-253.18750155 686.38454687 -253.18845676 682.96913135 -253.18944673 679.55371584 C-253.19861202 647.55146481 -253.19032211 615.54923912 -253.17415604 583.54699201 C-253.15992184 555.15323946 -253.16119338 526.7595273 -253.17553902 498.36577511 C-253.19162486 466.42138263 -253.19796057 434.47701252 -253.18870223 402.53261656 C-253.18774016 399.12332372 -253.18680163 395.71403089 -253.18587303 392.30473804 C-253.1856358 391.46536214 -253.18539857 390.62598624 -253.18515415 389.7611747 C-253.18175065 377.12031068 -253.18571589 364.47946289 -253.19331169 351.83860111 C-253.20191153 337.45563504 -253.19969818 323.07271494 -253.18346946 308.68975455 C-253.17469937 300.65339387 -253.17402906 292.61713287 -253.18540798 284.58077491 C-253.19298576 278.56198878 -253.18469133 272.54332995 -253.17048426 266.52455144 C-253.16715638 264.10352807 -253.16878508 261.68249122 -253.17611162 259.26147664 C-253.23022175 239.88166458 -251.36142069 221.41690863 -246.78442574 202.57256222 C-246.53692574 201.51101925 -246.28942574 200.44947628 -246.03442574 199.35576534 C-243.84720314 190.11133234 -241.26990845 181.10041194 -237.78442574 172.26006222 C-237.53257515 171.61424191 -237.28072456 170.96842159 -237.02124214 170.30303097 C-233.0965091 160.33514292 -228.72241962 150.68590396 -223.77856636 141.18340206 C-222.81963579 139.32818226 -221.88602417 137.46208255 -220.95630074 135.59209347 C-209.32979534 112.56771977 -192.83532544 93.08530053 -174.78442574 74.88506222 C-174.24597023 74.33857021 -173.70751472 73.79207821 -173.15274239 73.22902584 C-147.05701282 46.83827214 -111.90110522 23.60272781 -75.87036324 13.82646847 C-73.80220107 13.26488885 -71.80637322 12.59390588 -69.78442574 11.88506222 C-47.09827769 4.26957082 -23.95418312 -0.06949359 0 0 Z " fill="#000000" transform="translate(482.78442573547363,299.7399377822876)"/>
<path d="M0 0 C1.52740208 -0.00300528 3.05480264 -0.00687992 4.58220059 -0.01153234 C8.74872227 -0.02172927 12.91515821 -0.01967962 17.08168686 -0.01547697 C21.6265059 -0.01309702 26.17130466 -0.02229754 30.71611583 -0.02996117 C38.67182572 -0.04177417 46.62751272 -0.04617528 54.58323097 -0.04563999 C66.41458752 -0.04484485 78.24591528 -0.05541629 90.07726412 -0.06805556 C113.67350763 -0.09276306 137.26974408 -0.1015749 160.86599875 -0.10659205 C162.0872706 -0.10685322 163.30854244 -0.1071144 164.56682253 -0.10738349 C165.79062076 -0.10764376 167.014419 -0.10790404 168.27530203 -0.1081722 C181.85268264 -0.11125767 195.4300613 -0.11776358 209.00744057 -0.12438488 C250.03832021 -0.14403009 291.06919775 -0.16043573 332.1000824 -0.16326141 C333.41181522 -0.16335547 334.72354804 -0.16344954 336.07503034 -0.16354645 C341.39062664 -0.16392492 346.70622293 -0.16428891 352.02181923 -0.16464943 C355.35504181 -0.16487581 358.68826439 -0.16510495 362.02148697 -0.16533687 C363.35644482 -0.1654289 364.69140267 -0.16551929 366.02636052 -0.16560807 C408.21168629 -0.16842064 450.39696414 -0.19014816 492.58227348 -0.22699833 C539.25629154 -0.26776875 585.93027785 -0.29142031 632.60431468 -0.29172093 C637.58630554 -0.29181774 642.56829639 -0.29198446 647.55028725 -0.29220104 C648.77692448 -0.29224516 650.00356171 -0.29228927 651.26736977 -0.29233472 C670.96560996 -0.29345231 690.66380329 -0.31082807 710.36202842 -0.33402036 C730.17932324 -0.35691907 749.99655508 -0.36105196 769.81385829 -0.34647106 C781.56983621 -0.33835 793.32561507 -0.34390225 805.08156865 -0.36965191 C812.95549562 -0.38549891 820.82928254 -0.38283078 828.70320639 -0.36574518 C833.17565662 -0.35654528 837.64772584 -0.35475284 842.1201451 -0.37571125 C863.38601413 -0.46908103 883.34928951 0.95261569 904.21557426 5.26006222 C905.09107485 5.43529897 905.96657544 5.61053573 906.86860634 5.79108269 C924.35785255 9.30116491 942.04396145 14.94396502 957.93481255 23.09599972 C960.76481399 24.54038495 963.6143579 25.94386034 966.46166801 27.35381222 C980.44495654 34.35683466 993.71174141 41.83108396 1006.21557426 51.26006222 C1006.88572563 51.75812374 1007.555877 52.25618526 1008.24633598 52.76933956 C1018.45151209 60.44880322 1027.53884064 69.28260088 1036.59057426 78.26006222 C1037.13706627 78.79851772 1037.68355827 79.33697323 1038.24661064 79.89174557 C1064.63736434 105.98747513 1087.87290867 141.14338273 1097.64916801 177.17412472 C1098.21074763 179.24228688 1098.88173061 181.23811473 1099.59057426 183.26006222 C1108.32110907 209.2678659 1111.52047605 234.81397205 1111.48972893 262.14021969 C1111.4941874 264.64877763 1111.49950344 267.15733417 1111.50559765 269.66588867 C1111.51677547 275.09813985 1111.52181318 280.5303419 1111.52127647 285.96260357 C1111.5204792 294.04161427 1111.53107462 302.12058306 1111.54369204 310.1995825 C1111.56836207 326.31487078 1111.5772074 342.43014868 1111.58222853 358.54545326 C1111.58262029 359.79568037 1111.58262029 359.79568037 1111.58301997 361.07116461 C1111.58328025 361.90643223 1111.58354052 362.74169986 1111.58380868 363.60227862 C1111.58689792 372.88184288 1111.5934052 382.16140431 1111.60002136 391.44096661 C1111.61966337 419.50136646 1111.63607058 447.56176328 1111.6388979 475.62217045 C1111.63903899 476.96696837 1111.63903899 476.96696837 1111.63918293 478.33893393 C1111.63956138 481.97176179 1111.63992538 485.60458964 1111.64028591 489.2374175 C1111.64055762 491.97136548 1111.6408343 494.70531346 1111.64111137 497.43926144 C1111.6411994 498.34266653 1111.64128742 499.24607162 1111.64137811 500.17685262 C1111.64428093 528.53648835 1111.66635713 556.8960558 1111.70263481 585.25566769 C1111.74345046 617.16312815 1111.76705713 649.0705421 1111.76735741 680.97803009 C1111.76745422 684.38726577 1111.76762093 687.79650144 1111.76783752 691.20573711 C1111.76788164 692.04509221 1111.76792575 692.88444731 1111.7679712 693.74923741 C1111.76908646 707.19900868 1111.78642796 720.648711 1111.80965684 734.09846014 C1111.83261295 747.64260159 1111.83665192 761.18665089 1111.82210755 774.7308047 C1111.81472308 782.05402778 1111.81511851 789.37703344 1111.83851814 796.70022869 C1112.00908626 852.58016789 1112.00908626 852.58016789 1106.21557426 877.26006222 C1105.73321567 879.58241751 1105.26662258 881.90737584 1104.80360693 884.2336446 C1101.43858616 900.20814644 1095.82801441 916.46009585 1088.37963676 930.9793005 C1086.93525153 933.80930194 1085.53177614 936.65884585 1084.12182426 939.50615597 C1077.11880182 953.48944449 1069.64455253 966.75622937 1060.21557426 979.26006222 C1059.71751274 979.93021358 1059.21945122 980.60036495 1058.70629692 981.29082394 C1051.02683326 991.49600005 1042.19303561 1000.58332859 1033.21557426 1009.63506222 C1032.40789101 1010.45480022 1032.40789101 1010.45480022 1031.58389091 1011.29109859 C1010.36183224 1032.75308233 985.23002905 1048.10996255 958.21557426 1061.26006222 C957.14871391 1061.7807629 956.08185356 1062.30146358 954.98266411 1062.83794308 C947.43140692 1066.43055911 939.81097042 1069.30470323 931.84057426 1071.82256222 C930.62885551 1072.20750851 929.41713676 1072.5924548 928.16869926 1072.98906612 C918.12504304 1076.1092848 907.99531701 1078.80804211 897.63373089 1080.6482935 C895.80558324 1080.97548843 893.97808816 1081.30759194 892.15700471 1081.67205787 C880.12942583 1084.06097559 869.99398397 1084.36141418 857.97974694 1081.98821378 C853.48704644 1081.11210026 848.97113503 1080.37233504 844.45611382 1079.62139034 C843.49631931 1079.46040454 842.53652481 1079.29941874 841.54764563 1079.13355458 C820.68611215 1075.70018001 799.6077772 1073.8551117 778.52807426 1072.38506222 C776.77062897 1072.26035061 776.77062897 1072.26035061 774.97767973 1072.13311958 C713.24508769 1067.91147086 663.28744161 1076.24228479 616.16108513 1116.902915 C591.73700049 1138.25214126 569.19656065 1161.50387438 547.27807426 1185.38506222 C546.73006238 1185.98159465 546.18205049 1186.57812709 545.61743218 1187.19273627 C525.77259147 1208.80595438 506.16600364 1230.65632902 487.42975221 1253.24178161 C486.10955866 1254.83225562 484.7865327 1256.42032873 483.46264952 1258.00773227 C479.42239479 1262.85618494 475.41152551 1267.72397859 471.45894146 1272.64432621 C462.46368628 1283.65341121 454.56120879 1291.22301082 440.21557426 1294.26006222 C425.98009293 1295.47954067 412.27038185 1295.11721718 400.15307426 1286.69756222 C387.74670835 1276.10112032 376.28294171 1264.47650676 364.75732231 1252.94707394 C362.93296506 1251.12571449 361.1084049 1249.30455827 359.28365898 1247.48358822 C354.87496571 1243.08312779 350.46898301 1238.6799635 346.06412383 1234.27566545 C342.48629296 1230.69831224 338.90766844 1227.12175486 335.32849884 1223.54574108 C325.16558403 1213.39160433 315.00473859 1203.23540344 304.8465884 1193.07650016 C304.30134445 1192.53121627 303.75610051 1191.98593237 303.19433403 1191.42412472 C302.37546571 1190.60519508 302.37546571 1190.60519508 301.5400546 1189.7697214 C292.65671701 1180.88597575 283.76837737 1172.00725317 274.87781217 1163.13074122 C265.73409097 1154.00135928 256.59407824 1144.86827917 247.45795661 1135.73129189 C242.33415288 1130.60715586 237.20881266 1125.48457853 232.07947159 1120.36598492 C227.26905435 1115.5655838 222.463783 1110.76009171 217.66202736 1105.95102406 C215.89479311 1104.18273832 214.12583089 1102.4161777 212.35506821 1100.65142536 C209.94922794 1098.25322715 207.54954904 1095.84903372 205.15141106 1093.44313717 C204.44045318 1092.73732285 203.7294953 1092.03150854 202.99699324 1091.30430591 C202.36058215 1090.66329602 201.72417105 1090.02228613 201.06847477 1089.36185169 C200.51353563 1088.80712992 199.95859648 1088.25240814 199.386841 1087.68087661 C198.21557426 1086.26006222 198.21557426 1086.26006222 198.21557426 1084.26006222 C197.13203321 1084.2628276 196.04849215 1084.26559298 194.93211651 1084.26844215 C168.48717099 1084.33523529 142.04223649 1084.38443142 115.59722424 1084.41549873 C102.80827448 1084.4309245 90.01938067 1084.4519314 77.23046684 1084.48638058 C66.07513917 1084.51641491 54.91985205 1084.53566834 43.76448506 1084.5423277 C37.86554991 1084.54621631 31.9667307 1084.55526428 26.06783295 1084.57725239 C20.49876092 1084.59783996 14.92985094 1084.60385173 9.36074448 1084.59938526 C7.33289645 1084.60020062 5.30504215 1084.60603203 3.2772274 1084.61767864 C-15.04535161 1084.71761892 -32.66320082 1082.58552102 -50.47192574 1078.26006222 C-52.06424019 1077.88881222 -52.06424019 1077.88881222 -53.68872261 1077.51006222 C-62.93315562 1075.32283962 -71.94407601 1072.74554493 -80.78442574 1069.26006222 C-81.7531562 1068.88228634 -81.7531562 1068.88228634 -82.74145699 1068.49687862 C-92.70934503 1064.57214558 -102.358584 1060.1980561 -111.86108589 1055.25420284 C-113.71630569 1054.29527227 -115.5824054 1053.36166065 -117.45239449 1052.43193722 C-140.47676818 1040.80543182 -159.95918742 1024.31096193 -178.15942574 1006.26006222 C-178.70591774 1005.72160671 -179.25240974 1005.18315121 -179.81546211 1004.62837887 C-201.27744585 983.4063202 -216.63432607 958.274517 -229.78442574 931.26006222 C-230.30512642 930.19320187 -230.8258271 929.12634151 -231.36230659 928.02715206 C-234.95492263 920.47589488 -237.82906675 912.85545837 -240.34692574 904.88506222 C-240.73187202 903.67334347 -241.11681831 902.46162472 -241.51342964 901.21318722 C-244.98677706 890.03284665 -247.74727075 878.78619059 -249.78442574 867.26006222 C-249.90369689 866.61634157 -250.02296804 865.97262092 -250.14585347 865.30939358 C-252.79693066 850.77106317 -253.20996576 836.58740065 -253.16537666 821.83832455 C-253.16884001 819.31989971 -253.17360909 816.80147639 -253.1795584 814.2830562 C-253.18941746 808.84185528 -253.19011765 803.40077686 -253.18241692 797.9595747 C-253.17099651 789.86783513 -253.17690825 781.77617012 -253.18604184 773.68443094 C-253.20178582 759.22629536 -253.20049115 744.76819971 -253.1918051 730.31006038 C-253.18424103 717.65643671 -253.18229641 705.00282763 -253.18587303 692.34920216 C-253.18610219 691.50795303 -253.18633134 690.66670391 -253.18656744 689.79996239 C-253.18750155 686.38454687 -253.18845676 682.96913135 -253.18944673 679.55371584 C-253.19861202 647.55146481 -253.19032211 615.54923912 -253.17415604 583.54699201 C-253.15992184 555.15323946 -253.16119338 526.7595273 -253.17553902 498.36577511 C-253.19162486 466.42138263 -253.19796057 434.47701252 -253.18870223 402.53261656 C-253.18774016 399.12332372 -253.18680163 395.71403089 -253.18587303 392.30473804 C-253.1856358 391.46536214 -253.18539857 390.62598624 -253.18515415 389.7611747 C-253.18175065 377.12031068 -253.18571589 364.47946289 -253.19331169 351.83860111 C-253.20191153 337.45563504 -253.19969818 323.07271494 -253.18346946 308.68975455 C-253.17469937 300.65339387 -253.17402906 292.61713287 -253.18540798 284.58077491 C-253.19298576 278.56198878 -253.18469133 272.54332995 -253.17048426 266.52455144 C-253.16715638 264.10352807 -253.16878508 261.68249122 -253.17611162 259.26147664 C-253.23022175 239.88166458 -251.36142069 221.41690863 -246.78442574 202.57256222 C-246.53692574 201.51101925 -246.28942574 200.44947628 -246.03442574 199.35576534 C-243.84720314 190.11133234 -241.26990845 181.10041194 -237.78442574 172.26006222 C-237.53257515 171.61424191 -237.28072456 170.96842159 -237.02124214 170.30303097 C-233.0965091 160.33514292 -228.72241962 150.68590396 -223.77856636 141.18340206 C-222.81963579 139.32818226 -221.88602417 137.46208255 -220.95630074 135.59209347 C-209.32979534 112.56771977 -192.83532544 93.08530053 -174.78442574 74.88506222 C-174.24597023 74.33857021 -173.70751472 73.79207821 -173.15274239 73.22902584 C-147.05701282 46.83827214 -111.90110522 23.60272781 -75.87036324 13.82646847 C-73.80220107 13.26488885 -71.80637322 12.59390588 -69.78442574 11.88506222 C-47.09827769 4.26957082 -23.95418312 -0.06949359 0 0 Z M-53.78442574 117.26006222 C-54.58896187 117.6375964 -55.393498 118.01513058 -56.22241402 118.40410519 C-73.79898464 126.81852512 -88.9723809 137.5276392 -102.78442574 151.26006222 C-103.27894234 151.7505505 -103.77345894 152.24103878 -104.28296089 152.74639034 C-133.22057924 181.84193469 -148.50438049 221.53544216 -148.56823778 262.37741071 C-148.55251447 264.62319533 -148.53621915 266.86897601 -148.51941109 269.11475277 C-148.52347366 271.58248964 -148.53016853 274.05022329 -148.53922224 276.5179469 C-148.55276867 281.82359175 -148.54820475 287.12872942 -148.52657509 292.43431187 C-148.4945019 300.32385984 -148.4976028 308.21313929 -148.50715966 316.10273297 C-148.52224611 329.3864208 -148.50946082 342.66994107 -148.4799366 355.95359898 C-148.45076192 369.09602641 -148.43335632 382.23838036 -148.43156624 395.38084126 C-148.43144405 396.20161601 -148.43132186 397.02239076 -148.43119597 397.86803748 C-148.43073687 401.20046567 -148.43036254 404.53289386 -148.43009969 407.86532207 C-148.42768309 438.16353584 -148.39639628 468.4616474 -148.34692574 498.75981808 C-148.30029528 527.32493031 -148.27198393 555.88998056 -148.26489449 584.45513058 C-148.26467146 585.33616516 -148.26444842 586.21719975 -148.26421864 587.12493235 C-148.26332088 590.67712643 -148.26243692 594.22932052 -148.26155378 597.78151461 C-148.26111301 599.55194531 -148.26067043 601.322376 -148.26022602 603.0928067 C-148.25978329 604.85904789 -148.25934575 606.62528907 -148.25891342 608.39153026 C-148.25187839 636.53810704 -148.22896268 664.68467227 -148.20330074 692.83123744 C-148.19587373 701.05863351 -148.18934123 709.28602881 -148.18480301 717.51342702 C-148.17517627 734.80061782 -148.16094563 752.08777166 -148.12850767 769.37493686 C-148.11524315 776.52011042 -148.10491762 783.66525428 -148.1035862 790.81044102 C-148.10236191 797.35508584 -148.09114144 803.8996581 -148.0729472 810.4442816 C-148.06795082 812.8070828 -148.06625626 815.16989387 -148.06826478 817.5326995 C-148.10133749 865.76555492 -131.1480648 904.75785038 -97.13208199 938.92412472 C-81.52109181 953.71348383 -60.73752724 966.68816592 -40.00649261 972.62194538 C-38.47061487 973.06300747 -36.93898249 973.51902812 -35.41109848 973.98703098 C-10.95699765 981.22704423 14.15724529 980.08260757 39.40818048 979.97156024 C45.78856174 979.95074791 52.16885061 979.96673582 58.5492382 979.97925472 C69.24123582 979.99589003 79.93301554 979.99410685 90.62499809 979.97515011 C91.63607898 979.97336612 91.63607898 979.97336612 92.66758575 979.97154609 C93.34248717 979.97035393 94.01738858 979.96916177 94.71274155 979.96793348 C104.30882012 979.951038 113.90488161 979.94004712 123.50097466 979.93608761 C124.17812032 979.93580205 124.85526599 979.9355165 125.55293123 979.93522229 C136.87775729 979.93094193 148.20255123 979.93883531 159.52737063 979.95278579 C167.09172652 979.96083109 174.65582598 979.95239324 182.22015154 979.93022287 C186.92879598 979.91908399 191.63738529 979.92013543 196.34603882 979.92409801 C198.51511017 979.92331655 200.68418717 979.91742506 202.85322762 979.90581989 C222.75084538 979.80369431 241.09234338 980.83997044 256.32394898 995.34866929 C258.14405859 997.1877992 259.83527797 999.08350598 261.51673508 1001.0493803 C264.87790847 1004.91706091 268.39296625 1008.5781363 272.02200127 1012.19347286 C272.66965568 1012.84268727 273.3173101 1013.49190168 273.98459041 1014.16078925 C276.13230698 1016.31246058 278.28353932 1018.46058016 280.43481255 1020.60869503 C281.98456981 1022.15980874 283.53411456 1023.71113481 285.08346367 1025.26265621 C289.27513276 1029.45886943 293.46994105 1033.6519311 297.6654706 1037.84428406 C302.06085904 1042.23713464 306.45380021 1046.63243145 310.84713554 1051.02733517 C318.69267335 1058.87480617 326.54072472 1066.71975816 334.38977526 1074.56371555 C341.50157919 1081.67104758 348.61075068 1088.78100389 355.71801567 1095.89287472 C363.98427091 1104.16448442 372.25220708 1112.43440844 380.52261722 1120.701864 C384.89608949 1125.07377774 389.26888442 1129.44636321 393.639925 1133.82070827 C397.74658029 1137.93025157 401.85567294 1142.03734207 405.96666145 1146.14255047 C407.4747923 1147.64935898 408.98207267 1149.15701928 410.48843956 1150.66559124 C412.54436066 1152.72424431 414.60333636 1154.77979331 416.66311455 1156.83458614 C417.55626073 1157.7310784 417.55626073 1157.7310784 418.46745026 1158.64568162 C421.57318527 1161.73685053 424.72689937 1164.59256563 428.21557426 1167.26006222 C431.06117042 1165.96639424 433.11623428 1164.60793051 435.31916809 1162.39697742 C436.20490468 1161.51536389 436.20490468 1161.51536389 437.10853493 1160.61593997 C437.74763263 1159.96965235 438.38673033 1159.32336473 439.04519463 1158.65749264 C440.07491821 1157.62821563 440.07491821 1157.62821563 441.12544429 1156.57814515 C443.42995695 1154.27224098 445.72723795 1151.95926355 448.0246563 1149.64629269 C449.67358036 1147.99353106 451.3229598 1146.34122365 452.97276115 1144.68933773 C456.52836017 1141.12740954 460.08082584 1137.56239527 463.63095284 1133.99501324 C468.77373459 1128.82749495 473.92261355 1123.66608501 479.0734757 1118.50662364 C487.44336378 1110.12259729 495.80951068 1101.73484903 504.17260551 1093.34404659 C504.6731343 1092.84186218 505.17366309 1092.33967777 505.68935941 1091.82227565 C509.74705649 1087.75109981 513.80457226 1083.67974329 517.86206532 1079.60836411 C521.40006764 1076.05826309 524.93813753 1072.50822942 528.47631645 1068.95830441 C528.97441378 1068.45855082 529.47251111 1067.95879724 529.98570229 1067.44389962 C538.31048193 1059.09168504 546.63923599 1050.74344455 554.97080123 1042.39799893 C560.55906223 1036.80001204 566.14219963 1031.19696657 571.72169614 1025.59024405 C575.20324218 1022.09372674 578.68897397 1018.60140506 582.17582703 1015.11018085 C583.7859702 1013.49630875 585.3943912 1011.88071623 587.0009079 1010.26323414 C607.81512967 989.31149763 607.81512967 989.31149763 617.65307426 984.88506222 C618.6417852 984.42357784 619.63049614 983.96209347 620.64916801 983.48662472 C632.58981017 979.37998547 644.87588348 979.96613489 657.3395977 979.97295284 C659.582866 979.96692183 661.82613204 979.95999587 664.06939507 979.95224667 C668.88466616 979.9374039 673.69989611 979.92862001 678.51518822 979.92453671 C686.14015107 979.91779689 693.76502638 979.896011 701.38995171 979.87200069 C712.08930626 979.83969861 722.78865352 979.8128364 733.4880352 979.7918005 C734.16572143 979.79046551 734.84340765 979.78913052 735.54162982 979.78775507 C740.34961094 979.77833142 745.15759254 979.769169 749.96557426 979.76006222 C755.4509262 979.74966843 760.93627785 979.73914904 766.42162895 979.72832394 C767.43508592 979.72632782 767.43508592 979.72632782 768.46901676 979.72429138 C779.77071332 979.70179141 791.07237692 979.67148456 802.37404084 979.63593149 C809.94248206 979.61268422 817.51086233 979.59886727 825.07933569 979.59243679 C829.80219994 979.58646721 834.52501524 979.57234405 839.24785423 979.55609226 C841.42495902 979.55025325 843.60207587 979.54773628 845.77918816 979.54893208 C891.81524572 979.56699724 930.2411025 963.46526824 963.21557426 931.26006222 C980.83883878 913.48574115 994.46068569 890.11852 1000.96557426 865.88506222 C1001.15216606 865.19178829 1001.33875786 864.49851437 1001.53100395 863.78423214 C1002.1562799 861.28677672 1002.68864833 858.78036607 1003.21557426 856.26006222 C1003.46424136 855.07321327 1003.71290845 853.88636432 1003.96911091 852.66355026 C1006.49980055 839.66181269 1006.64564374 826.90474012 1006.61671257 813.69539547 C1006.62232706 811.24555647 1006.6292332 808.79572015 1006.63730854 806.34588802 C1006.65176052 801.04816599 1006.65704242 795.75055661 1006.6539402 790.45282459 C1006.64933801 782.57400909 1006.66191091 774.69528346 1006.67756408 766.81648552 C1006.706485 751.92013214 1006.7150131 737.02380988 1006.71673525 722.12743171 C1006.7181173 710.61636793 1006.72431003 699.10531624 1006.73383713 687.5942564 C1006.73653004 684.27304774 1006.73919948 680.95183906 1006.74186176 677.63063037 C1006.74252491 676.80481132 1006.74318805 675.97899226 1006.74387129 675.12814838 C1006.76231861 651.91787951 1006.77417455 628.70761482 1006.77284145 605.49733829 C1006.77277135 604.18632712 1006.77277135 604.18632712 1006.77269983 602.84883087 C1006.77245053 598.41966188 1006.77215341 593.99049289 1006.77184571 589.5613239 C1006.77178587 588.68178044 1006.77172603 587.80223698 1006.77166439 586.89604069 C1006.77154307 585.1173906 1006.77141768 583.3387405 1006.77128821 581.56009041 C1006.76945113 553.90502064 1006.79195413 526.25006133 1006.83300591 498.59502316 C1006.87918185 467.4756975 1006.90489892 436.35644441 1006.90211624 405.23708236 C1006.90189237 401.91273014 1006.90174624 398.58837792 1006.90165329 395.26402569 C1006.90161833 394.445576 1006.90158336 393.62712632 1006.90154734 392.78387513 C1006.90145539 379.66668764 1006.9205356 366.54959681 1006.94645008 353.43243798 C1006.97199788 340.22686155 1006.97475764 327.02142505 1006.95512212 313.81583746 C1006.94411303 305.99190464 1006.94929679 298.16839958 1006.97894914 290.34451293 C1006.99930852 284.47136629 1006.98757989 278.59854533 1006.96432947 272.72540127 C1006.95976749 270.37282934 1006.96500764 268.02020974 1006.9819097 265.66769411 C1007.13294109 243.12579735 1003.8933901 219.85063632 994.21557426 199.26006222 C993.64927299 198.05325802 993.64927299 198.05325802 993.0715313 196.82207394 C974.76788369 158.58826134 942.44796962 127.62938798 902.21557426 113.26006222 C898.55150842 112.06640778 894.8645863 110.98357819 891.15307426 109.94756222 C889.86119194 109.58368404 889.86119194 109.58368404 888.54321098 109.2124548 C875.7316729 105.82581293 862.98156516 104.96111022 849.78287029 104.99720669 C848.28160969 104.99389778 846.7803508 104.98972088 845.27909473 104.98476648 C841.18050944 104.97373752 837.08200855 104.97495859 832.98341324 104.97832166 C828.51400321 104.97979353 824.04461606 104.96971548 819.575216 104.96117163 C810.72268066 104.94606503 801.87016946 104.94162823 793.01762257 104.94051352 C782.40876128 104.93868094 771.79992212 104.9253302 761.19107039 104.91181987 C735.5544512 104.8797498 709.91783446 104.86789904 684.28119881 104.85832237 C672.14592733 104.85364553 660.01065772 104.84643969 647.8753877 104.83893162 C606.30920891 104.81326518 564.74303115 104.79182631 523.1768446 104.78492641 C520.56917864 104.78448315 517.96151269 104.78403959 515.35384674 104.78359571 C512.74000318 104.78315444 510.12615961 104.78271347 507.51231605 104.78227282 C502.26878949 104.78138773 497.02526293 104.78049349 491.78173637 104.77959347 C490.48165357 104.77937469 489.18157076 104.7791559 487.8420915 104.77893049 C445.69893608 104.77167128 403.5558495 104.73983613 361.41272044 104.69321274 C316.82308746 104.64397323 272.23349382 104.61657876 227.64383286 104.61419058 C222.74499364 104.61384769 217.84615443 104.61341684 212.94731522 104.61292171 C211.7411439 104.61281018 210.53497257 104.61269864 209.29225061 104.61258372 C189.91806127 104.61028661 170.54394284 104.58827603 151.1697774 104.5591476 C131.68060911 104.53035389 112.19153129 104.52397955 92.70234755 104.54002756 C81.13921339 104.54891 69.57637221 104.54134049 58.01327681 104.50955055 C50.27041484 104.48993977 42.52775639 104.49251199 34.78489594 104.512423 C30.38559264 104.52312792 25.98684868 104.52488907 21.58759347 104.49940556 C-4.32980358 104.35867448 -29.88170404 106.02549744 -53.78442574 117.26006222 Z " fill="#C8C8C8" transform="translate(482.78442573547363,299.7399377822876)"/>
<path d="M0 0 C0.98720002 -0.00465992 1.97440004 -0.00931984 2.99151522 -0.01412097 C6.28974878 -0.02604374 9.58756834 -0.01668581 12.88580513 -0.00736332 C15.27827013 -0.01153741 17.67073314 -0.01701534 20.06319249 -0.02368313 C25.25990769 -0.03512817 30.45654057 -0.03727068 35.65326118 -0.0311327 C43.38116034 -0.02202955 51.10897619 -0.03008336 58.83686897 -0.04142394 C72.64068082 -0.06108128 86.4444551 -0.06344005 100.2482776 -0.05822874 C112.32953706 -0.05367005 124.41078165 -0.05427264 136.49204063 -0.06006908 C138.11314159 -0.06082595 139.73424254 -0.06158193 141.3553435 -0.06233703 C143.79825369 -0.06348223 146.24116389 -0.06463211 148.68407407 -0.06579627 C171.39350475 -0.07649997 194.10293048 -0.08122786 216.81236267 -0.07332611 C218.09620693 -0.07288035 218.09620693 -0.07288035 219.40598743 -0.07242559 C226.3562876 -0.0699767 233.30658771 -0.06736509 240.25688782 -0.06474145 C267.3667071 -0.05463929 294.47646445 -0.06299436 321.5862751 -0.086236 C352.05202328 -0.11231254 382.51773417 -0.12515549 412.98349392 -0.11804825 C416.23241623 -0.1173322 419.48133853 -0.11665781 422.73026085 -0.1160078 C423.93019065 -0.11575309 423.93019065 -0.11575309 425.15436145 -0.11549323 C437.22566284 -0.11319103 449.29692958 -0.12116348 461.36822319 -0.13429928 C475.09769671 -0.14921293 488.82708908 -0.15005045 502.55656086 -0.13222837 C510.23708857 -0.12266855 517.91742698 -0.12409363 525.59794203 -0.14146306 C531.33627293 -0.15319659 537.07441884 -0.14396677 542.81272854 -0.12664068 C545.13160406 -0.12287012 547.45050249 -0.12583292 549.76935767 -0.13625234 C568.54554719 -0.21461337 583.41335174 2.0069031 597.79965401 15.28656673 C609.29293135 27.65684115 612.70736418 41.18185617 612.12777901 57.62641048 C611.30205725 70.79381627 604.41269915 83.47192707 594.74496651 92.38031673 C586.45006076 98.62063814 576.2057061 104.49817863 565.54415423 104.5091179 C564.707114 104.5123901 563.87007378 104.51566229 563.0076687 104.51903364 C562.09137242 104.51755002 561.17507614 104.51606639 560.2310133 104.51453781 C558.76104726 104.51806616 558.76104726 104.51806616 557.26138493 104.52166578 C553.95170701 104.52836447 550.64206826 104.52789729 547.33238411 104.52748775 C544.94581207 104.53078584 542.55924059 104.53451129 540.17266983 104.53862923 C534.2847056 104.54761003 528.39674846 104.5518779 522.50877885 104.5541482 C515.45773862 104.55710936 508.40670838 104.56580633 501.3556734 104.57456248 C484.31092626 104.59541252 467.26617738 104.60587795 450.22142047 104.61469209 C442.15777907 104.6188982 434.09413841 104.62412027 426.03049764 104.62937662 C398.42772375 104.64726819 370.82494965 104.66226378 343.22217083 104.66969681 C341.48903574 104.67017157 339.75590066 104.67064745 338.02276557 104.67112447 C337.16328476 104.67136085 336.30380396 104.67159722 335.41827827 104.67184076 C331.06371406 104.67304196 326.70914985 104.67425741 322.35458565 104.67548275 C321.4904083 104.6757229 320.62623095 104.67596305 319.73586641 104.67621048 C291.72239598 104.68410194 263.70896792 104.70752993 235.69551599 104.74003869 C206.07852567 104.77434555 176.46156012 104.79404879 146.8445496 104.79734105 C143.59242657 104.79775859 140.34030355 104.79823815 137.08818054 104.79876423 C135.88703337 104.79894902 135.88703337 104.79894902 134.66162061 104.79913754 C121.78061775 104.80146861 108.89966411 104.81712354 96.01867878 104.83760608 C83.06708805 104.85787387 70.11555637 104.86333688 57.16395272 104.85383544 C49.47254935 104.84862402 41.78134276 104.85448084 34.08996777 104.87637011 C28.34152882 104.89149126 22.59326197 104.88562199 16.84482705 104.87169959 C14.52305842 104.86931806 12.20127081 104.87367524 9.87953121 104.88552824 C-9.56481579 104.97863109 -23.39779093 102.70130788 -38.38003349 89.50922298 C-48.70901543 78.78829307 -52.69029727 64.54979881 -52.61636162 50.07953548 C-52.32365759 36.25179328 -47.51464817 25.26484329 -38.12222099 15.06391048 C-27.41271836 4.94938022 -14.6250964 -0.10938788 0 0 Z " fill="#C8C8C8" transform="translate(632.255033493042,649.619683265686)"/>
<path d="M0 0 C1.81499375 -0.00417649 3.62998488 -0.00965573 5.4449712 -0.01631981 C10.41595514 -0.03075178 15.38677297 -0.0265367 20.35776591 -0.019153 C25.72530208 -0.01441808 31.09280248 -0.02693406 36.46032715 -0.03717041 C46.96937725 -0.05435738 57.47836755 -0.05519862 67.98742805 -0.04995751 C76.53019019 -0.04591438 85.07293466 -0.04736107 93.61569595 -0.05270576 C95.44020501 -0.0538284 95.44020501 -0.0538284 97.30157284 -0.05497371 C99.77264873 -0.0565052 102.24372461 -0.05804355 104.71480049 -0.05958868 C127.88268193 -0.07331336 151.0505296 -0.06787625 174.21841027 -0.05640347 C195.40697506 -0.04647119 216.59545252 -0.05941175 237.78400384 -0.08333766 C259.54842629 -0.10772839 281.31280808 -0.11733658 303.07724392 -0.11068493 C315.293118 -0.10719265 327.50892493 -0.1094254 339.72478867 -0.12693596 C350.12387346 -0.14165758 360.52284381 -0.14229381 370.92192636 -0.12486505 C376.22570206 -0.11635243 381.52927329 -0.11421208 386.83303833 -0.1295166 C391.69261167 -0.14336557 396.55180542 -0.13859765 401.41135682 -0.11927737 C403.16495992 -0.11551772 404.91859344 -0.11843828 406.67216943 -0.12888902 C423.5220412 -0.22213128 437.56864934 3.6076461 450.22879028 15.29393005 C461.72206763 27.66420447 465.13650045 41.18921949 464.55691528 57.6337738 C463.73119352 70.80117959 456.84183543 83.47929039 447.17410278 92.38768005 C437.43492777 99.71453634 427.08606639 104.548154 414.84658146 104.52190113 C414.10297641 104.52425336 413.35937137 104.52660559 412.59323284 104.5290291 C410.08762792 104.53571553 407.58207489 104.53526098 405.07646179 104.53485107 C403.26736161 104.53814993 401.45826217 104.54187555 399.64916366 104.54599255 C394.66660546 104.5560184 389.6840593 104.5597303 384.70149243 104.56238186 C379.33179723 104.56628325 373.96211159 104.57586178 368.59242249 104.58459473 C355.61801524 104.60436508 342.6436072 104.61442662 329.66918865 104.62332252 C323.55969578 104.62770497 317.45020378 104.63307194 311.34071159 104.63831139 C291.03131191 104.65532516 270.72191277 104.66981896 250.41250706 104.67706013 C245.14106305 104.67897004 239.86961904 104.68089036 234.59817505 104.68284607 C232.63287736 104.68357168 232.63287736 104.68357168 230.62787669 104.68431195 C209.40727998 104.69261082 188.18673967 104.71794469 166.96616758 104.75042675 C145.18046796 104.78350196 123.394797 104.80150936 101.60907215 104.80470437 C89.37685871 104.80686916 77.14472749 104.8156133 64.91253853 104.84116554 C54.49395157 104.86287891 44.07546678 104.87091982 33.65685976 104.86119876 C28.34286734 104.85665579 23.0290857 104.85854029 17.71512222 104.87796021 C12.84478511 104.89560479 7.97481237 104.89458349 3.10447132 104.87906291 C1.34797377 104.87668881 -0.4085491 104.88100007 -2.165008 104.89289156 C-19.66627458 105.00398308 -32.64505746 101.23257388 -45.95089722 89.5165863 C-56.27987915 78.79565639 -60.26116099 64.55716213 -60.18722534 50.0868988 C-59.89452131 36.2591566 -55.08551189 25.27220661 -45.69308472 15.0712738 C-32.23754064 2.36325996 -17.75479378 -0.06651547 0 0 Z " fill="#C8C8C8" transform="translate(639.8258972167969,929.6123199462891)"/>
</svg>
